#define arch_10x10_width 12
#define arch_10x10_height 12
static unsigned char arch_10x10_bits[] = {
   0x00, 0x00, 0x20, 0x00, 0x20, 0x00, 0x70, 0x00, 0x70, 0x00, 0xf8, 0x00,
   0xf8, 0x00, 0xdc, 0x01, 0x8c, 0x01, 0x8e, 0x03, 0x02, 0x02, 0x00, 0x00 };
