#define bat_ch_width 12
#define bat_ch_height 12
static unsigned char bat_ch_bits[] = {
   0xe0, 0x00, 0xe0, 0x00, 0xfc, 0x07, 0x04, 0x04, 0xa4, 0x04, 0xf4, 0x05,
   0xf4, 0x05, 0xe4, 0x04, 0xc4, 0x05, 0x84, 0x07, 0x04, 0x04, 0xfc, 0x07 };
