#define bat_full_01_width 12
#define bat_full_01_height 12
static unsigned char bat_full_01_bits[] = {
   0xe0, 0x00, 0xe0, 0x00, 0xfc, 0x07, 0x04, 0x04, 0xe4, 0x04, 0xe4, 0x04,
   0xe4, 0x04, 0xe4, 0x04, 0xe4, 0x04, 0xe4, 0x04, 0x04, 0x04, 0xfc, 0x07 };
