#define bat_35_width 12
#define bat_35_height 12
static unsigned char bat_35_bits[] = {
   0xe0, 0x00, 0xe0, 0x00, 0xfc, 0x07, 0x04, 0x04, 0x04, 0x04, 0x04, 0x04,
   0x04, 0x04, 0x04, 0x04, 0xe4, 0x04, 0xe4, 0x04, 0x04, 0x04, 0xfc, 0x07 };
