#define cpu_width 12
#define cpu_height 12
static unsigned char cpu_bits[] = {
   0x67, 0x0e, 0x67, 0x0e, 0x03, 0x0c, 0xf8, 0x01, 0xf8, 0x01, 0xfb, 0x0d,
   0xfb, 0x0d, 0xf8, 0x01, 0xf8, 0x01, 0x03, 0x0c, 0x67, 0x0e, 0x67, 0x0e };
