#define cpu2_width 12
#define cpu2_height 12
static unsigned char cpu2_bits[] = {
   0x67, 0x0e, 0x67, 0x0e, 0x03, 0x0c, 0x00, 0x00, 0xf0, 0x00, 0xf3, 0x0c,
   0xf3, 0x0c, 0xf0, 0x00, 0x00, 0x00, 0x03, 0x0c, 0x67, 0x0e, 0x67, 0x0e };
