#define mem_width 12
#define mem_height 12
static unsigned char mem_bits[] = {
   0x24, 0x09, 0x24, 0x09, 0x00, 0x00, 0xfc, 0x0f, 0xfc, 0x0f, 0xfc, 0x0f,
   0xfc, 0x0f, 0xfc, 0x0f, 0xfc, 0x0f, 0x00, 0x00, 0x24, 0x09, 0x24, 0x09 };
