#define network3_width 12
#define network3_height 12
static unsigned char network3_bits[] = {
   0x70, 0x00, 0x50, 0x00, 0x70, 0x00, 0x20, 0x00, 0x20, 0x00, 0xfe, 0x03,
   0x22, 0x02, 0x22, 0x02, 0x77, 0x07, 0x55, 0x05, 0x77, 0x07, 0x00, 0x00 };
