#define network_width 12
#define network_height 12
static unsigned char network_bits[] = {
   0x00, 0x00, 0x70, 0x00, 0x70, 0x00, 0xfe, 0x03, 0xfe, 0x03, 0xfe, 0x03,
   0xfe, 0x03, 0x56, 0x03, 0x56, 0x03, 0xfe, 0x03, 0x00, 0x00, 0x00, 0x00 };
