#define network2_width 12
#define network2_height 12
static unsigned char network2_bits[] = {
   0x00, 0x00, 0x3e, 0x00, 0xa2, 0x03, 0x3e, 0x02, 0x08, 0x02, 0x1c, 0x00,
   0xc0, 0x07, 0x42, 0x04, 0xde, 0x07, 0x00, 0x01, 0x80, 0x03, 0x00, 0x00 };
