#define psave_width 22
#define psave_height 12
static unsigned char psave_bits[] = {
   0x80, 0x3f, 0x00, 0x60, 0xc0, 0x00, 0x90, 0x0c, 0x01, 0x48, 0x62, 0x06,
   0x24, 0x31, 0x09, 0x97, 0x88, 0x30, 0xfc, 0xff, 0x1f, 0x24, 0x88, 0x08,
   0x48, 0x31, 0x05, 0x10, 0x46, 0x02, 0x60, 0xc0, 0x01, 0x80, 0x7f, 0x00 };
