#define psave_width 12
#define psave_height 12
static unsigned char psave_bits[] = {
   0x00, 0x00, 0xf8, 0x01, 0x44, 0x02, 0x46, 0x06, 0x0a, 0x05, 0x11, 0x08,
   0x67, 0x0e, 0x61, 0x08, 0x01, 0x08, 0x0a, 0x05, 0x06, 0x06, 0x00, 0x00 };
