#define spkr_02_width 12
#define spkr_02_height 12
static unsigned char spkr_02_bits[] = {
   0x20, 0x00, 0x30, 0x00, 0x38, 0x00, 0x3f, 0x00, 0xff, 0x00, 0xff, 0x00,
   0xff, 0x00, 0xff, 0x00, 0x3f, 0x00, 0x38, 0x00, 0x30, 0x00, 0x20, 0x00 };
