#define spkr_50_width 12
#define spkr_50_height 12
static unsigned char spkr_50_bits[] = {
   0x20, 0x00, 0x30, 0x00, 0x38, 0x00, 0xbf, 0x00, 0x3f, 0x01, 0x3f, 0x01,
   0x3f, 0x01, 0x3f, 0x01, 0xbf, 0x00, 0x38, 0x00, 0x30, 0x00, 0x20, 0x00 };
