#define spkr_00_width 12
#define spkr_00_height 12
static unsigned char spkr_00_bits[] = {
   0x20, 0x00, 0x30, 0x00, 0x38, 0x00, 0x3f, 0x00, 0x3f, 0x00, 0x3f, 0x00,
   0x3f, 0x00, 0x3f, 0x00, 0x3f, 0x00, 0x38, 0x00, 0x30, 0x00, 0x20, 0x00 };
