#define spkr_0_width 12
#define spkr_0_height 12
static unsigned char spkr_0_bits[] = {
   0x82, 0x00, 0xc4, 0x08, 0xe8, 0x04, 0xfe, 0x02, 0xfe, 0x01, 0xfe, 0x00,
   0xfe, 0x00, 0xfe, 0x01, 0xfe, 0x02, 0xe8, 0x04, 0xc4, 0x08, 0x82, 0x00 };
