#define temp_width 12
#define temp_height 12
static unsigned char temp_bits[] = {
   0x60, 0x00, 0x60, 0x0c, 0x00, 0x0e, 0x0c, 0x07, 0x8c, 0x03, 0x40, 0x01,
   0xa0, 0x00, 0x5c, 0x00, 0x22, 0x00, 0x22, 0x00, 0x22, 0x00, 0x1c, 0x00 };
